<?xml version="1.0" encoding="UTF-8" standalone="no"?>
<!-- Created with Inkscape (http://www.inkscape.org/) -->

<svg 
   xmlns:svg="http://www.w3.org/2000/svg"
   xmlns="http://www.w3.org/2000/svg"
   xmlns:sodipodi="http://sodipodi.sourceforge.net/DTD/sodipodi-0.dtd"
   xmlns:inkscape="http://www.inkscape.org/namespaces/inkscape"
   width="400" 
   height="400"
   version="1.0"
   >
  <defs>
    <marker id="arrowhead" markerWidth="2" markerHeight="2" 
    refX="2" refY="1.5" orient="auto">
      <polygon points="0 0, 3 2, 0 4" />
    </marker>
  </defs>
  <g >
    <!-- bounding stuff -->
    <rect  width="90" height="265" stroke="#666666" stroke-width="3"  fill="rgb(255, 255, 255)" x="20" y="50" />
    
    <!-- Left Nodes --> 
    <g>
        <rect  x="10" y="55" width="20" height="5" stroke-width="0" fill="#aaa" />
        <rect  x="10" y="65" width="20" height="5" stroke-width="0" fill="#aaa" />
        <rect  x="10" y="75" width="20" height="5" stroke-width="0" fill="#aaa" />
        <rect  x="10" y="85" width="20" height="5" stroke-width="0" fill="#aaa" />
        <rect  x="10" y="95" width="20" height="5" stroke-width="0" fill="#aaa" />
        <rect  x="10" y="105" width="20" height="5" stroke-width="0" fill="#aaa" />
        <rect  x="10" y="115" width="20" height="5" stroke-width="0" fill="#aaa" />
        <rect  x="10" y="125" width="20" height="5" stroke-width="0" fill="#aaa" />
        <rect  x="10" y="135" width="20" height="5" stroke-width="0" fill="#aaa" />
        <rect  x="10" y="145" width="20" height="5" stroke-width="0" fill="#aaa" />
        <rect  x="10" y="155" width="20" height="5" stroke-width="0" fill="#aaa" />
        <rect  x="10" y="165" width="20" height="5" stroke-width="0" fill="#aaa" />
        <rect  x="10" y="175" width="20" height="5" stroke-width="0" fill="#aaa" />
        <rect  x="10" y="185" width="20" height="5" stroke-width="0" fill="#aaa" />
        <rect  x="10" y="195" width="20" height="5" stroke-width="0" fill="#aaa" />
        <rect  x="10" y="205" width="20" height="5" stroke-width="0" fill="#aaa" />
        <rect  x="10" y="215" width="20" height="5" stroke-width="0" fill="#aaa" />
        <rect  x="10" y="225" width="20" height="5" stroke-width="0" fill="#aaa" />
        <rect  x="10" y="235" width="20" height="5" stroke-width="0" fill="#aaa" />
        <rect  x="10" y="245" width="20" height="5" stroke-width="0" fill="#aaa" />
        <rect  x="10" y="255" width="20" height="5" stroke-width="0" fill="#aaa" />
        <rect  x="10" y="265" width="20" height="5" stroke-width="0" fill="#aaa" />
        <rect  x="10" y="275" width="20" height="5" stroke-width="0" fill="#aaa" />
        <rect  x="10" y="285" width="20" height="5" stroke-width="0" fill="#aaa" />
        <rect  x="10" y="295" width="20" height="5" stroke-width="0" fill="#aaa" />
        <rect  x="10" y="305" width="20" height="5" stroke-width="0" fill="#aaa" />
    </g>

    <!-- Right Nodes --> 
    <g> 
        <rect  x="100" y="55" width="20" height="5" stroke-width="0" fill="#aaa" />
        <rect  x="100" y="65" width="20" height="5" stroke-width="0" fill="#aaa" />
        <rect  x="100" y="75" width="20" height="5" stroke-width="0" fill="#aaa" />
        <rect  x="100" y="85" width="20" height="5" stroke-width="0" fill="#aaa" />
        <rect  x="100" y="95" width="20" height="5" stroke-width="0" fill="#aaa" />
        <rect  x="100" y="105" width="20" height="5" stroke-width="0" fill="#aaa" />
        <rect  x="100" y="115" width="20" height="5" stroke-width="0" fill="#aaa" />
        <rect  x="100" y="125" width="20" height="5" stroke-width="0" fill="#aaa" />
        <rect  x="100" y="135" width="20" height="5" stroke-width="0" fill="#aaa" />
        <rect  x="100" y="145" width="20" height="5" stroke-width="0" fill="#aaa" />
        <rect  x="100" y="155" width="20" height="5" stroke-width="0" fill="#aaa" />
        <rect  x="100" y="165" width="20" height="5" stroke-width="0" fill="#aaa" />
        <rect  x="100" y="175" width="20" height="5" stroke-width="0" fill="#aaa" />
        <rect  x="100" y="185" width="20" height="5" stroke-width="0" fill="#aaa" />
        <rect  x="100" y="195" width="20" height="5" stroke-width="0" fill="#aaa" />
        <rect  x="100" y="205" width="20" height="5" stroke-width="0" fill="#aaa" />
        <rect  x="100" y="215" width="20" height="5" stroke-width="0" fill="#aaa" />
        <rect  x="100" y="225" width="20" height="5" stroke-width="0" fill="#aaa" />
        <rect  x="100" y="235" width="20" height="5" stroke-width="0" fill="#aaa" />
        <rect  x="100" y="245" width="20" height="5" stroke-width="0" fill="#aaa" />
        <rect  x="100" y="255" width="20" height="5" stroke-width="0" fill="#aaa" />
        <rect  x="100" y="265" width="20" height="5" stroke-width="0" fill="#aaa" />
        <rect  x="100" y="275" width="20" height="5" stroke-width="0" fill="#aaa" />
        <rect  x="100" y="285" width="20" height="5" stroke-width="0" fill="#aaa" />
        <rect  x="100" y="295" width="20" height="5" stroke-width="0" fill="#aaa" />
        <rect  x="100" y="305" width="20" height="5" stroke-width="0" fill="#aaa" />
    </g> 
 
    <!-- edges (60, 57 + ((block# - 1) * 10)) , (150, 57 + ((block# - 1) * 10)--> 
    <g>
        <polyline points="30,77 , 100,57" style="fill:none;stroke:#aaa;stroke-width:2" />
    </g>

    <!-- mapping --> 
    <text x="10" y="340">A</text> <!-- left --> 
    <text x="100" y="340">A</text> <!-- right --> 
    <line x2="50" y2="335" x1="80" y1="335"  stroke="#000" stroke-width="2  " marker-end="url(#arrowhead)" />

    <text x="10" y="370">A</text> <!-- left --> 
    <text x="100" y="370">A</text> <!-- right --> 
    <line x1="50" y1="365" x2="80" y2="365"  stroke="#000" stroke-width="2  " marker-end="url(#arrowhead)" />


  </g>
</svg>
